<?xml version="1.0" encoding="UTF-8" standalone="no"?>
<svg
   width="500.0"
   height="391.78327951109065"
   version="1.1"
   id="svg4994"
   xmlns="http://www.w3.org/2000/svg"
   xmlns:svg="http://www.w3.org/2000/svg">
  <defs
     id="defs4998" />
  <path
     fill="none"
     stroke="#939598"
     stroke-width="3"
     stroke-linecap="round"
     stroke-linejoin="round"
     d="m 38.212339,68.537352 c 0,0 5.136617,-1.725865 6.86891,-0.73518 1.733899,0.989881 5.695032,1.733096 6.190776,-3.218722 0.495745,-4.951817 1.733096,-7.428128 5.446759,-10.894319 3.71527,-3.466192 3.466192,-4.705151 5.942503,-4.705151 2.47631,0 6.437443,-0.248274 8.666283,-2.475507 2.228037,-2.228037 6.684111,-2.970448 7.179855,-5.19929 0.494941,-2.228839 2.476311,-3.714465 4.951818,-2.228839 2.47631,1.485623 5.942502,1.238959 7.923069,-0.741608 1.980566,-1.980566 3.961133,-0.991488 5.198489,-2.723781 1.238949,-1.733096 4.952609,-2.22884 7.676399,-2.47631 2.72378,-0.246667 5.9425,-2.971252 7.92307,-4.951818 1.98056,-1.980567 4.2078,-1.980567 6.68571,-1.980567 2.47471,0 3.96114,-0.989881 5.44596,1.485626 1.48643,2.475507 3.21872,3.466996 6.43905,2.22884 3.21791,-1.238157 7.42652,-1.238157 11.38765,-0.248273 3.96194,0.99068 6.68572,-0.494941 9.65694,0.99068 2.97128,1.48563 4.70438,0.247475 6.68494,3.466197 1.98057,3.218718 3.71367,2.970447 5.94251,1.485625 2.22723,-1.485625 6.68491,-0.248274 8.91374,-3.466192 2.22723,-3.218722 5.9425,-4.951014 7.42652,-3.713662 1.48724,1.237352 3.96194,4.208601 4.45768,8.169734 0.49414,3.961938 4.45608,7.676405 6.43664,7.676405 1.98057,0 5.2001,-1.48643 5.44757,-4.20941 0.24747,-2.722975 3.21791,-3.961934 7.17985,-4.951816 3.96194,-0.989882 5.44756,-0.494137 7.92307,1.7339 2.47631,2.227233 8.16973,3.960329 10.39938,4.208604 2.22884,0.248274 4.70354,-2.228841 5.69423,-3.466193 0.98988,-1.237352 4.70515,0.248274 6.68491,0.248274 1.98057,0 3.96194,-0.742411 4.45688,0.990685 0.49494,1.732292 2.22803,2.228841 6.18997,1.485625 3.96194,-0.743214 8.66548,0 10.64605,1.980568 1.98137,1.980566 5.9425,4.209406 8.91456,6.437443 2.97044,2.228037 4.70354,3.715269 10.1519,0 5.44516,-3.714466 7.17986,-5.446758 10.39697,-2.475507 3.22033,2.971251 6.68572,6.190776 8.91376,4.456877 2.22884,-1.7339 5.20089,-2.476311 7.6764,-5.942503 2.47551,-3.466192 4.70435,-5.448366 5.44676,-7.180658 0.74241,-1.733097 4.45688,-5.199289 7.42732,-4.703544 2.97125,0.49494 6.68492,-0.496548 7.18066,-2.228841 0.49494,-1.733096 2.72378,-6.189169 4.20941,-2.722977 1.48562,3.466192 5.44595,16.83602 6.68411,18.321646 1.23815,1.485626 4.45768,4.704347 4.95182,8.41801 0.49494,3.713661 2.72458,7.923068 8.17134,7.428127 5.44676,-0.494941 7.6756,0.742411 10.1511,1.237352 2.47551,0.494941 8.17054,-0.743215 10.15191,0.990685 1.98057,1.733899 4.20941,1.238959 5.44676,0.248274 1.23735,-0.989882 2.47629,-0.991489 3.96194,0.742411 1.48562,1.733899 3.46457,1.237352 5.19927,0.494941 1.7331,-0.741608 3.96194,-0.743215 3.96194,2.47631 0,3.219525 1.48562,5.695032 4.95101,7.676402 3.467,1.980567 5.69423,5.695033 7.92307,8.418814 2.22884,2.722978 5.44835,4.704348 7.6764,4.951818 2.22722,0.24747 6.18997,3.219525 7.92307,5.942504 1.73229,2.72298 5.44676,6.437439 6.93158,7.428129 1.48643,0.98988 3.71524,2.97125 4.95262,5.9425 1.23816,2.97125 3.46539,7.18146 5.94251,9.90444 2.4755,2.72297 4.2086,4.95021 7.92226,5.19848 3.71366,0.24827 5.2009,0.24667 6.43744,1.98057 1.23816,1.7339 4.70435,2.22884 6.93239,2.22884 2.22804,0 3.71527,-1.48643 3.46699,2.72297 -0.24907,4.20941 0,6.93319 0.49414,8.17054 0.49575,1.23736 -1.48562,4.95262 -3.46539,6.93239 -1.98137,1.98056 -4.21021,4.2086 -2.22884,6.18997 1.98057,1.98057 1.98137,4.70435 -0.24666,6.68491 -2.22884,1.98057 -2.47792,2.72298 -2.72539,6.18998 -0.24667,3.46619 -1.48482,4.70354 -2.72218,5.9425 -1.23899,1.23896 -1.98137,2.97205 2.47551,4.70515 4.45685,1.73229 5.69423,1.23735 7.17986,0.24667 1.48562,-0.98988 2.72455,-1.98057 4.70434,-0.49494 1.98137,1.48562 3.96194,0.74321 7.42813,0.74321 3.46539,0 7.17986,2.97125 4.2078,6.43745 -2.97125,3.46619 -5.19929,1.73309 -7.17985,3.46619 -1.98137,1.73229 -4.70438,4.45527 -4.70438,8.16973 0,3.71447 8.3e-4,9.90364 -4.20857,7.92307 -4.20941,-1.98056 -8.16974,-4.45607 -10.39858,-2.47551 -2.22884,1.97977 -3.71447,0.74322 -7.18066,-0.24747 -3.46619,-0.98988 -8.17134,0.24747 -7.92387,5.19849 0.24908,4.95262 -1.23655,11.63673 -4.70354,15.352 -3.4662,3.71366 -8.66548,5.9417 -12.37995,6.93158 -3.71366,0.99069 -8.91375,-1.73229 -10.15191,0.74322 -1.23735,2.47711 -1.7331,5.20009 -4.45688,7.18065 -2.72297,1.98057 -2.97044,2.72459 -2.4755,6.19078 0.49494,3.46539 -0.49494,5.19929 -2.97126,5.9417 -2.47631,0.7424 -2.97044,3.46539 -1.48642,7.6756 1.48642,4.2094 -1.48483,5.20009 -0.49414,9.65777 0.98986,4.45688 3.96274,8.66468 3.21952,11.63593 -0.74401,2.97045 -2.72538,4.70434 -6.19077,7.18066 -3.46539,2.47631 -3.96033,4.21021 -3.71367,7.92226 0.24828,3.71366 1.23816,5.9425 -2.72378,9.65697 -3.96272,3.71447 -3.96272,8.16974 -3.46617,9.90283 0.49494,1.7339 3.22031,3.46619 5.20007,2.47631 1.98137,-0.99068 6.43664,-4.45687 7.17986,-1.98137 0.74402,2.47631 0.74402,4.95182 2.72539,4.95182 1.97976,0 2.4747,1.48804 3.71205,3.71447 1.23896,2.22803 -0.24667,4.45687 -0.24667,5.9425 0,1.48562 2.47471,7.92226 -2.22884,7.92226 -4.70354,0 -4.45527,4.20861 -8.66467,2.72379 -4.20941,-1.48483 -7.17984,1.48723 -8.4188,-0.74242 -1.23816,-2.22884 -3.467,-3.96274 -1.23816,-5.69583 2.22884,-1.73229 -2.4747,-4.95021 0.24828,-5.19849 2.72296,-0.24907 5.19927,-2.22803 2.22723,-3.96193 -2.97045,-1.7339 -4.20941,-4.45768 -4.95182,-5.69584 -0.7416,-1.23655 -2.97044,-0.98988 -5.44675,2.97125 -2.47632,3.96114 -7.17986,4.95182 -11.14099,3.4662 -3.96113,-1.48563 -5.19849,-1.23896 -5.44676,2.4755 -0.24827,3.71527 -2.72378,7.92307 -6.68572,10.89513 -3.96193,2.97044 -7.17985,4.70354 -9.65536,1.97976 -2.47631,-2.72218 -3.96274,-2.4747 -9.16203,-1.23655 -5.19929,1.23655 -4.45527,3.21953 -4.2078,4.45688 0.24747,1.23735 -2.97125,0.49333 -1.48562,4.2078 1.48562,3.71527 2.96884,9.4095 1.73229,12.13328 -1.23816,2.72297 -3.21872,1.48402 -5.69423,2.22803 -2.47551,0.74241 -3.96354,0.74161 -5.69583,-1.98137 -1.7323,-2.72378 -2.72298,0.74322 -4.2078,0.24828 -1.48643,-0.49494 -5.69664,4.2086 -8.17135,4.70354 -2.47631,0.49494 -5.69423,4.95262 -8.66548,6.68491 -2.97125,1.7323 -5.19848,2.22884 -6.18917,0.49575 -0.98988,-1.7339 -1.73309,-0.99149 -3.71446,-0.24908 -1.98057,0.74322 -2.72378,-1.73309 -3.96194,-4.45607 -1.23655,-2.72378 -2.97125,-4.45688 -5.9417,-4.45688 -2.97125,0 -3.71446,3.96274 -6.18917,4.2086 -2.47792,0.24828 -8.41961,1.73471 -9.65777,0 -1.23735,-1.73309 -4.45688,-2.97044 -6.18917,-0.98988 -1.7331,1.98137 -4.45768,1.98137 -6.43825,1.48643 -1.98056,-0.49574 -2.47631,-0.49574 -3.46539,0.98988 -0.99068,1.48563 -2.22883,-1.23815 -5.20089,0.24667 -2.97125,1.48643 -5.44676,3.22033 -7.42813,0.24908 -1.98056,-2.97125 -4.2086,-3.21953 -5.69503,-3.21953 -1.48402,0 -2.4747,-1.97976 -3.46459,-4.2086 -0.98988,-2.22884 -1.23895,-3.96274 0.74242,-6.18997 1.98056,-2.22804 1.23815,-5.69423 0,-9.65617 -1.23896,-3.96113 -0.24828,-10.15191 -3.96194,-10.64685 -3.71286,-0.49574 -3.21872,-3.71446 -5.69343,-6.43744 -2.47711,-2.72378 -2.47711,-5.44596 -7.6764,-5.19929 -5.19929,0.24667 -3.46619,-3.71366 -6.93238,-4.95182 -3.46619,-1.23896 -5.19849,-1.73309 -6.93239,-1.48562 -1.7339,0.24666 -4.2086,-1.73471 -4.2086,-3.22033 0,-1.48483 0.74241,-4.45608 -1.98057,-4.45608 -2.72378,0 -0.24827,-5.19928 -2.97125,-4.70354 -2.72458,0.49494 -10.64684,-5.44676 -12.13246,-1.48563 -1.48563,3.96114 -2.47632,4.45527 -4.95182,-0.24907 -2.47551,-4.70435 -4.45688,-8.41801 -4.21021,-13.37063 0.24827,-4.95102 1.23896,-8.41801 0.74321,-10.39778 -0.49494,-1.98137 1.7339,-3.46699 1.7339,-7.42812 0,-3.96194 0.98988,-8.16974 1.98057,-10.64525 0.98988,-2.47711 3.96193,-4.21021 5.69423,-6.68571 1.73229,-2.47632 4.95181,-2.97045 3.96113,-8.66549 -0.99069,-5.69583 0.74241,-8.91375 -3.21953,-10.89432 -3.96193,-1.98137 -4.95262,-3.21791 -6.18997,-5.44675 -1.23735,-2.22884 -2.97045,-2.72378 -4.45607,-1.98137 -1.48563,0.74241 -3.46619,0 -4.20941,-5.44676 -0.74241,-5.44678 0.24828,-8.66709 -2.22804,-9.65697 -2.47552,-0.99069 -4.95181,1.23815 -7.6764,2.47631 -2.72298,1.23896 -6.43583,0.49494 -10.64604,-0.98991 -4.20941,-1.4864 -11.1426,-1.73467 -13.6173,-0.49572 -2.47711,1.23896 -5.20009,5.2009 -8.17134,3.71527 -2.97125,-1.48562 -3.71366,-3.96274 -3.71366,-6.19077 0,-2.22724 -2.97125,-1.7339 -5.448362,-1.48563 -2.474707,0.24747 -7.179862,-1.48402 -8.169743,-3.71366 -0.989882,-2.22964 -2.723781,-1.7339 -4.704348,-2.22884 -1.980566,-0.49494 -3.713662,-2.97125 -6.189169,-5.44676 -2.476311,-2.47631 -5.199288,-2.47631 -8.169736,-4.45688 -2.971251,-1.98056 -4.209407,1.48643 -5.695032,-0.24747 -1.485626,-1.7339 -3.961937,-3.21792 -4.456074,-5.44676 -0.495744,-2.22884 -2.22884,-4.2094 -3.466192,-6.18997 -1.237352,-1.98056 -1.733899,-2.22884 -3.714466,-0.49574 -1.980567,1.73309 -5.445955,3.21952 -5.445955,3.21952 0,0 0,-3.46619 1.732292,-5.44676 1.733096,-1.98056 -0.49494,-2.47711 -1.238155,-5.20009 -0.742411,-2.72298 0.743215,-5.9425 -1.732292,-4.45687 -2.476311,1.48562 -5.200092,3.46779 -2.722978,-2.22724 2.474704,-5.69503 5.942503,-5.20009 4.208603,-11.63753 -1.733899,-6.43745 -4.208603,-5.69423 -3.466192,-9.65617 0.741608,-3.96193 0,-6.68572 -0.990685,-9.16203 -0.989881,-2.4755 -0.49494,-5.69342 -1.732292,-8.16973 -1.238959,-2.47631 -1.980567,-4.21021 -2.723781,-5.20009 -0.743215,-0.99069 1.237352,8.91455 0.743214,11.63753 -0.496547,2.72298 1.237352,7.18066 0,8.41801 -1.238958,1.23735 -1.487232,4.20941 -1.487232,6.93239 0,2.72297 -0.990685,4.2086 -2.228037,5.69422 -1.237352,1.48563 2.228037,4.20941 -0.24747,7.18066 -2.477114,2.97125 -2.477114,3.96194 -3.218722,6.93239 -0.741607,2.97044 -0.742411,1.73229 -2.47631,4.2086 -1.7339,2.47631 -3.714466,4.45688 -3.961938,5.44756 -0.246666,0.98988 -3.466191,-1.23815 -3.466191,-1.23815 0,0 10.39938,-16.34189 12.627417,-28.9685 2.22884,-12.62742 2.477113,-25.5023 1.733095,-28.96849 -0.743214,-3.4662 -1.733095,-8.91456 -1.485626,-14.11385 0.248275,-5.198479 -0.74241,-11.884197 0.989882,-16.341074 1.733096,-4.456877 2.22884,-4.456877 1.485626,-8.418814 -0.742411,-3.96274 -1.669622,-9.6642 -1.669622,-9.6642 z"
     id="path7330"
     style="fill:#cecece;stroke:none;fill-opacity:1" />
</svg>
